<svg xmlns="http://www.w3.org/2000/svg" viewBox="0 0 787.12 401.62"><title>powers-logo-final-color</title><g id="Layer_2" data-name="Layer 2"><g id="Layer_1-2" data-name="Layer 1"><path d="M231.08,121.5,201.6,105.78a199.55,199.55,0,0,1,352.29,0L524.41,121.5a166.14,166.14,0,0,0-293.33,0Z" fill="#d4ad67"></path><path d="M524.41,280.12l29.48,15.72a199.55,199.55,0,0,1-352.29,0l29.48-15.72a166.14,166.14,0,0,0,293.33,0Z" fill="#d4ad67"></path><path d="M0,150.71H52.29q17.92,0,27.9,9.12t10,25.38q0,16.1-10,25.29t-27.82,9.2H28.21v39.1H0Zm48.45,47.84q7.81,0,11.58-3.22t3.75-10q0-6.75-3.75-10T48.45,172H28.21v26.53Z" fill="#153860"></path><path d="M137.45,253.36A46.63,46.63,0,0,1,118.67,234q-6.58-12.49-6.59-29.36t6.59-29.36a46.17,46.17,0,0,1,18.78-19.25q12.2-6.73,28.75-6.74T195,156.07a45.66,45.66,0,0,1,18.71,19.25q6.51,12.5,6.51,29.36T213.58,234a46.63,46.63,0,0,1-18.78,19.32q-12.2,6.83-28.6,6.82Q149.64,260.18,137.45,253.36Zm47.92-23.46q6.9-8.66,6.9-25.22t-7-25.15q-7-8.58-19.09-8.58-12.27,0-19.16,8.5t-6.9,25.23q0,16.71,6.9,25.3t19.16,8.58Q178.47,238.56,185.37,229.9Z" fill="#153860"></path><path d="M376,150.71h26.68L364,258.8H341.61L318.76,194,295.61,258.8H273.07L234.59,150.71h28.67l22.38,68.53,24.23-68.53h19.47l23.15,69.76Z" fill="#153860"></path><path d="M425.93,258.8V150.71h76.82v21.77H453.38V193h46.3v21.62h-46.3V237h49.37V258.8Z" fill="#153860"></path><path d="M638.44,258.8h-31l-18.71-34.49q-3.53-6-11.19-6H569V258.8H541.23V150.71h51.52q19.62,0,29.51,8.51t9.89,24.61q0,12.25-6.74,20.77t-19,11.42q9.36,2,14.88,12.12Zm-36.72-64.55q4.06-2.91,4.06-9.5,0-6.75-4.06-9.74t-13.42-3H568.68v25.15H588.3Q597.65,197.17,601.72,194.25Z" fill="#153860"></path><path d="M678.92,257q-11.82-3.22-19.17-8.58l8.74-19.94A66.16,66.16,0,0,0,685.2,236a63.41,63.41,0,0,0,17.94,2.6q9.21,0,14-2.53T722,228.9c0-2.76-1.46-5-4.37-6.74S709.17,218.68,701,217q-15.18-3.22-23.77-7.67t-12-10.43q-3.44-6-3.45-14.72a30.17,30.17,0,0,1,5.6-17.86,37.4,37.4,0,0,1,15.79-12.42,57.25,57.25,0,0,1,23.39-4.52,78.38,78.38,0,0,1,22.61,3.29q11,3.3,17.1,8.52l-8.59,19.93q-14.71-10.12-31-10.12-7.83,0-12.58,3t-4.75,7.89a6.75,6.75,0,0,0,1.69,4.76q1.68,1.83,6.29,3.6a90.21,90.21,0,0,0,13.64,3.6q14.71,3.22,23.16,7.75t12,10.5a27.57,27.57,0,0,1,3.53,14.26q0,15.94-12.27,24.91t-34.5,9A90.33,90.33,0,0,1,678.92,257Z" fill="#153860"></path><path d="M760.68,169V153.64h-5.92V152h13.87v1.69h-5.94V169Z" fill="#153860"></path><path d="M785.5,152h1.62v17H785.3l0-13.19-5.54,10.48h-1.4l-5.56-10.39,0,13.1H771V152h1.65l6.45,12.34Z" fill="#153860"></path></g></g></svg>